<svg xmlns="http://www.w3.org/2000/svg" viewBox="0 0 32 32" fill="white">
  <path d="M16 .396C7.164.396.005 7.556.005 16.392c0 2.89.752 5.713 2.179 8.204L.02 32l7.535-2.1a15.93 15.93 0 008.445 2.347h.001c8.836 0 15.996-7.159 15.996-15.995C31.997 7.556 24.837.396 16 .396zm0 29.292a13.19 13.19 0 01-6.72-1.846l-.48-.288-4.474 1.246 1.194-4.355-.313-.448a13.172 13.172 0 01-2.14-7.202c0-7.284 5.93-13.213 13.214-13.213 7.283 0 13.212 5.929 13.212 13.213 0 7.284-5.93 13.213-13.213 13.213zm7.388-9.924c-.404-.202-2.388-1.176-2.758-1.312-.37-.135-.64-.202-.91.202-.27.404-1.045 1.312-1.28 1.58-.236.27-.472.303-.876.102-.404-.202-1.705-.63-3.246-2.008-1.2-1.07-2.008-2.393-2.245-2.797-.236-.404-.025-.622.177-.823.183-.182.404-.472.606-.708.202-.236.27-.404.404-.673.135-.27.067-.505-.034-.707-.102-.202-.91-2.186-1.246-2.996-.327-.785-.66-.678-.91-.69-.236-.01-.505-.012-.774-.012-.27 0-.707.102-1.078.505-.37.404-1.415 1.38-1.415 3.367 0 1.986 1.447 3.91 1.65 4.18.202.27 2.85 4.35 6.902 6.098.964.415 1.716.662 2.303.848.968.308 1.85.265 2.547.16.777-.116 2.388-.976 2.724-1.92.337-.944.337-1.75.236-1.92-.101-.168-.37-.27-.774-.472z"/>
</svg>
